<svg width="657.9px" height="122px" xmlns="http://www.w3.org/2000/svg" viewBox="-78.94687499999998 14 657.89375 122" style="background: rgba(0, 0, 0, 0)" preserveAspectRatio="xMidYMid"><defs><filter id="editing-offset"><feFlood flood-color="#f00" flood-opacity="0.5" result="c1"></feFlood><feFlood flood-color="#0f0" flood-opacity="0.5" result="c2"></feFlood><feFlood flood-color="#00f" flood-opacity="0.5" result="c3"></feFlood><feComposite operator="in" in="c1" in2="SourceAlpha" result="text-c1"></feComposite><feComposite operator="in" in="c2" in2="SourceAlpha" result="text-c2"></feComposite><feComposite operator="in" in="c3" in2="SourceAlpha" result="text-c3"></feComposite><feOffset in="text-c1" dx="-10" dy="0" result="text1"></feOffset><feOffset in="text-c2" dx="10" dy="0" result="text2"></feOffset><feOffset in="text-c3" dx="0" dy="0" result="text3"></feOffset><feMerge><feMergeNode in="text1"></feMergeNode><feMergeNode in="text2"></feMergeNode><feMergeNode in="text3"></feMergeNode></feMerge></filter></defs><g filter="url(#editing-offset)"><g transform="matrix(1.3,0,0,1.8,-48.9,225.7)"><path d="M 13.3 -70.7 L -0.7 -70.7 L 7.4 -112.9 L 21.5 -112.9 L 13.3 -70.7 Z M 69 -69.4 L 69 -69.4 L 69 -69.4 Q 61.3 -69.4 61.3 -75.4 L 61.3 -75.4 L 61.3 -75.4 Q 61.3 -78 62.4 -83.1 L 62.4 -83.1 L 62.4 -83.1 Q 63.5 -88.2 63.9 -90.2 L 63.9 -90.2 L 63.9 -90.2 Q 64.8 -94.9 64.8 -96.4 L 64.8 -96.4 L 64.8 -96.4 Q 64.8 -99.7 62.3 -99.7 L 62.3 -99.7 L 62.3 -99.7 Q 60.7 -99.7 59.2 -97.4 L 59.2 -97.4 L 59.2 -97.4 Q 57.7 -95.2 57 -90.8 L 57 -90.8 L 53 -70.7 L 40.5 -69.4 L 44 -86.8 L 44 -86.8 Q 44.6 -89.7 45.1 -92.9 L 45.1 -92.9 L 45.1 -92.9 Q 45.6 -96.2 45.6 -96.7 L 45.6 -96.7 L 45.6 -96.7 Q 45.6 -99.7 43.4 -99.7 L 43.4 -99.7 L 43.4 -99.7 Q 41.9 -99.7 40.3 -97.5 L 40.3 -97.5 L 40.3 -97.5 Q 38.7 -95.3 37.8 -90.8 L 37.8 -90.8 L 33.9 -70.7 L 21.3 -69.4 L 28 -103.3 L 38.5 -104.6 L 37.4 -98.1 L 37.4 -98.1 Q 39.1 -101.6 42.1 -103.1 L 42.1 -103.1 L 42.1 -103.1 Q 45.2 -104.6 50 -104.6 L 50 -104.6 L 50 -104.6 Q 52.7 -104.6 54.5 -103.2 L 54.5 -103.2 L 54.5 -103.2 Q 56.3 -101.9 56.9 -99.7 L 56.9 -99.7 L 56.9 -99.7 Q 58 -102 60.8 -103.3 L 60.8 -103.3 L 60.8 -103.3 Q 63.6 -104.6 67 -104.6 L 67 -104.6 L 67 -104.6 Q 70.4 -104.6 72.1 -103.8 L 72.1 -103.8 L 72.1 -103.8 Q 73.8 -103.1 74.8 -101.9 L 74.8 -101.9 L 74.8 -101.9 Q 76.6 -99.7 76.6 -95.6 L 76.6 -95.6 L 76.6 -95.6 Q 76.6 -91.5 74.8 -83.1 L 74.8 -83.1 L 74.8 -83.1 Q 73.9 -79 73.9 -77.5 L 73.9 -77.5 L 73.9 -77.5 Q 73.9 -76 74.8 -75.1 L 74.8 -75.1 L 74.8 -75.1 Q 75.7 -74.2 76.9 -74.1 L 76.9 -74.1 L 76.9 -74.1 Q 76.3 -71.9 74.1 -70.7 L 74.1 -70.7 L 74.1 -70.7 Q 71.9 -69.4 69 -69.4 Z M 84.7 -72.6 L 84.7 -72.6 L 84.7 -72.6 Q 83.1 -74.2 82.5 -76.9 L 82.5 -76.9 L 82.5 -76.9 Q 81.8 -79.5 81.8 -83.8 L 81.8 -83.8 L 81.8 -83.8 Q 81.8 -88.1 83.3 -92 L 83.3 -92 L 83.3 -92 Q 84.7 -95.9 87.4 -98.7 L 87.4 -98.7 L 87.4 -98.7 Q 92.9 -104.6 102 -104.6 L 102 -104.6 L 102 -104.6 Q 105.3 -104.6 107.7 -103.5 L 107.7 -103.5 L 118.6 -104.6 L 113.9 -79.6 L 113.9 -79.6 Q 113.7 -78.9 113.7 -77.4 L 113.7 -77.4 L 113.7 -77.4 Q 113.7 -76 114.5 -75.1 L 114.5 -75.1 L 114.5 -75.1 Q 115.4 -74.2 116.7 -74.1 L 116.7 -74.1 L 116.7 -74.1 Q 116 -71.9 113.7 -70.7 L 113.7 -70.7 L 113.7 -70.7 Q 111.4 -69.4 108.7 -69.4 L 108.7 -69.4 L 108.7 -69.4 Q 106.1 -69.4 104.4 -70.4 L 104.4 -70.4 L 104.4 -70.4 Q 102.6 -71.4 102.1 -73 L 102.1 -73 L 102.1 -73 Q 101.1 -71.4 98.9 -70.4 L 98.9 -70.4 L 98.9 -70.4 Q 96.7 -69.4 93.8 -69.4 L 93.8 -69.4 L 93.8 -69.4 Q 90.9 -69.4 88.5 -70.2 L 88.5 -70.2 L 88.5 -70.2 Q 86.2 -70.9 84.7 -72.6 Z M 98.2 -98.6 L 98.2 -98.6 L 98.2 -98.6 Q 97.4 -97.4 96.8 -95.5 L 96.8 -95.5 L 96.8 -95.5 Q 96.1 -93.5 95.1 -88.3 L 95.1 -88.3 L 95.1 -88.3 Q 94 -83.1 94 -79.4 L 94 -79.4 L 94 -79.4 Q 94 -75.7 94.6 -74.6 L 94.6 -74.6 L 94.6 -74.6 Q 95.2 -73.5 96.2 -73.5 L 96.2 -73.5 L 96.2 -73.5 Q 98.3 -73.5 99.8 -75.4 L 99.8 -75.4 L 99.8 -75.4 Q 101.3 -77.4 101.8 -80.8 L 101.8 -80.8 L 105.2 -99.6 L 105.2 -99.6 Q 103.9 -100.7 102.3 -100.7 L 102.3 -100.7 L 102.3 -100.7 Q 100.7 -100.7 99.8 -100.2 L 99.8 -100.2 L 99.8 -100.2 Q 98.9 -99.7 98.2 -98.6 Z M 126.3 -97.4 L 126.3 -97.4 L 126.3 -97.4 Q 128.5 -100.5 131.8 -102.5 L 131.8 -102.5 L 131.8 -102.5 Q 135.1 -104.6 139.1 -104.6 L 139.1 -104.6 L 139.1 -104.6 Q 143.2 -104.6 145.1 -103.3 L 145.1 -103.3 L 157.6 -104.6 L 153.3 -80 L 153.3 -80 Q 151.1 -67.5 146.3 -62.5 L 146.3 -62.5 L 146.3 -62.5 Q 141.8 -57.9 132.9 -57.9 L 132.9 -57.9 L 132.9 -57.9 Q 126.2 -57.9 122.4 -60 L 122.4 -60 L 122.4 -60 Q 118.5 -62.1 118.5 -65.6 L 118.5 -65.6 L 118.5 -65.6 Q 118.5 -68.2 120.5 -69.7 L 120.5 -69.7 L 120.5 -69.7 Q 122.5 -71.2 125.6 -71.2 L 125.6 -71.2 L 125.6 -71.2 Q 128.3 -71.2 130.3 -70 L 130.3 -70 L 130.3 -70 Q 131.5 -69.4 132.1 -68.5 L 132.1 -68.5 L 132.1 -68.5 Q 130.6 -67.2 130.6 -65.1 L 130.6 -65.1 L 130.6 -65.1 Q 130.6 -62.3 133.2 -62.3 L 133.2 -62.3 L 133.2 -62.3 Q 137.5 -62.3 139.9 -72.5 L 139.9 -72.5 L 139.9 -72.5 Q 140.6 -75.2 141.2 -78 L 141.2 -78 L 141.2 -78 Q 138.3 -74.4 131.8 -74.4 L 131.8 -74.4 L 131.8 -74.4 Q 127.2 -74.4 124.6 -76.6 L 124.6 -76.6 L 124.6 -76.6 Q 122 -78.8 122 -83.9 L 122 -83.9 L 122 -83.9 Q 122 -87.1 123.1 -90.7 L 123.1 -90.7 L 123.1 -90.7 Q 124.2 -94.3 126.3 -97.4 Z M 134.7 -83.7 L 134.7 -83.7 L 134.7 -83.7 Q 134.7 -79.4 136.9 -79.4 L 136.9 -79.4 L 136.9 -79.4 Q 138.4 -79.4 139.9 -81 L 139.9 -81 L 139.9 -81 Q 141.1 -82.4 141.5 -84.4 L 141.5 -84.4 L 144.8 -100.8 L 144.8 -100.8 Q 144.5 -100.9 144.1 -101 L 144.1 -101 L 144.1 -101 Q 143.5 -101.3 142.7 -101.3 L 142.7 -101.3 L 142.7 -101.3 Q 138.8 -101.3 136.5 -94.9 L 136.5 -94.9 L 136.5 -94.9 Q 134.7 -89.9 134.7 -83.7 Z M 186.1 -81.5 L 186.1 -81.5 L 186.1 -81.5 Q 187.7 -80.4 187.7 -78 L 187.7 -78 L 187.7 -78 Q 187.7 -75.6 186.4 -74.1 L 186.4 -74.1 L 186.4 -74.1 Q 185.2 -72.5 183.2 -71.5 L 183.2 -71.5 L 183.2 -71.5 Q 179.1 -69.4 174.7 -69.4 L 174.7 -69.4 L 174.7 -69.4 Q 170.3 -69.4 167.7 -70.3 L 167.7 -70.3 L 167.7 -70.3 Q 165.1 -71.3 163.4 -73.1 L 163.4 -73.1 L 163.4 -73.1 Q 160 -76.5 160 -82.7 L 160 -82.7 L 160 -82.7 Q 160 -92.4 165.3 -98.2 L 165.3 -98.2 L 165.3 -98.2 Q 170.9 -104.6 180.7 -104.6 L 180.7 -104.6 L 180.7 -104.6 Q 186.8 -104.6 189.8 -102 L 189.8 -102 L 189.8 -102 Q 192 -100.1 192 -97 L 192 -97 L 192 -97 Q 192 -85.7 172.6 -85.7 L 172.6 -85.7 L 172.6 -85.7 Q 172.3 -84 172.3 -82.6 L 172.3 -82.6 L 172.3 -82.6 Q 172.3 -79.7 173.6 -78.6 L 173.6 -78.6 L 173.6 -78.6 Q 174.9 -77.4 177.4 -77.4 L 177.4 -77.4 L 177.4 -77.4 Q 179.8 -77.4 182.4 -78.6 L 182.4 -78.6 L 182.4 -78.6 Q 185 -79.7 186.1 -81.5 Z M 173 -88.5 L 173 -88.5 L 173 -88.5 Q 177.5 -88.5 180.2 -91.3 L 180.2 -91.3 L 180.2 -91.3 Q 182.8 -94 182.8 -98.2 L 182.8 -98.2 L 182.8 -98.2 Q 182.8 -99.7 182.3 -100.5 L 182.3 -100.5 L 182.3 -100.5 Q 181.7 -101.3 180.6 -101.3 L 180.6 -101.3 L 180.6 -101.3 Q 179.5 -101.3 178.6 -100.9 L 178.6 -100.9 L 178.6 -100.9 Q 177.7 -100.5 176.7 -99.1 L 176.7 -99.1 L 176.7 -99.1 Q 174.3 -95.9 173 -88.5 Z M 213.3 -93.1 L 213.3 -93.1 L 213.3 -93.1 Q 214.2 -95.5 214.2 -97.5 L 214.2 -97.5 L 214.2 -97.5 Q 214.2 -101.3 211.1 -101.3 L 211.1 -101.3 L 211.1 -101.3 Q 209.5 -101.3 208.2 -99.9 L 208.2 -99.9 L 208.2 -99.9 Q 206.9 -98.4 206.9 -96.6 L 206.9 -96.6 L 206.9 -96.6 Q 206.9 -95.4 207.9 -94.3 L 207.9 -94.3 L 207.9 -94.3 Q 209.4 -92.9 213.2 -90.6 L 213.2 -90.6 L 213.2 -90.6 Q 217 -88.3 218.4 -86.4 L 218.4 -86.4 L 218.4 -86.4 Q 219.9 -84.6 219.9 -82 L 219.9 -82 L 219.9 -82 Q 219.9 -79.4 218.6 -77 L 218.6 -77 L 218.6 -77 Q 217.4 -74.6 215.1 -73 L 215.1 -73 L 215.1 -73 Q 210.3 -69.4 202.6 -69.4 L 202.6 -69.4 L 202.6 -69.4 Q 198.5 -69.4 195.3 -71.6 L 195.3 -71.6 L 195.3 -71.6 Q 192.1 -73.7 192.1 -76.2 L 192.1 -76.2 L 192.1 -76.2 Q 192.1 -78.7 193.9 -80.1 L 193.9 -80.1 L 193.9 -80.1 Q 195.7 -81.6 198.4 -81.6 L 198.4 -81.6 L 198.4 -81.6 Q 201.1 -81.6 202.8 -80.6 L 202.8 -80.6 L 202.8 -80.6 Q 201.9 -78.5 201.9 -77.1 L 201.9 -77.1 L 201.9 -77.1 Q 201.9 -72.8 205.5 -72.8 L 205.5 -72.8 L 205.5 -72.8 Q 207.1 -72.8 208.1 -73.8 L 208.1 -73.8 L 208.1 -73.8 Q 209.1 -74.8 209.1 -76.4 L 209.1 -76.4 L 209.1 -76.4 Q 209.1 -79.7 203.6 -83.1 L 203.6 -83.1 L 203.6 -83.1 Q 199.1 -86.1 198.1 -87.2 L 198.1 -87.2 L 198.1 -87.2 Q 196.4 -89.3 196.4 -91.8 L 196.4 -91.8 L 196.4 -91.8 Q 196.4 -94.4 197.6 -96.8 L 197.6 -96.8 L 197.6 -96.8 Q 198.8 -99.3 201 -101 L 201 -101 L 201 -101 Q 205.7 -104.6 213.8 -104.6 L 213.8 -104.6 L 213.8 -104.6 Q 218 -104.6 220.5 -102.9 L 220.5 -102.9 L 220.5 -102.9 Q 222.9 -101.3 222.9 -98.4 L 222.9 -98.4 L 222.9 -98.4 Q 222.9 -95.6 221.2 -94 L 221.2 -94 L 221.2 -94 Q 219.5 -92.4 216.5 -92.4 L 216.5 -92.4 L 216.5 -92.4 Q 214.3 -92.4 213.3 -93.1 Z M 264.4 -91.3 L 277.3 -92.4 L 277.3 -92.4 Q 272.7 -82.3 272.7 -70.6 L 272.7 -70.6 L 272.7 -70.6 Q 271 -69.4 268.5 -69.4 L 268.5 -69.4 L 268.5 -69.4 Q 265.9 -69.4 264.3 -70.6 L 264.3 -70.6 L 264.3 -70.6 Q 262.7 -71.8 262.4 -73 L 262.4 -73 L 262.4 -73 Q 260.8 -71.3 258.2 -70.3 L 258.2 -70.3 L 258.2 -70.3 Q 255.6 -69.4 252.9 -69.4 L 252.9 -69.4 L 252.9 -69.4 Q 250.1 -69.4 247.7 -70.3 L 247.7 -70.3 L 247.7 -70.3 Q 245.3 -71.2 243.5 -73.2 L 243.5 -73.2 L 243.5 -73.2 Q 239.4 -77.5 239.4 -85.8 L 239.4 -85.8 L 239.4 -85.8 Q 239.4 -98.6 246.2 -106.2 L 246.2 -106.2 L 246.2 -106.2 Q 253.3 -114.2 265.7 -114.2 L 265.7 -114.2 L 265.7 -114.2 Q 274.4 -114.2 277.5 -109.7 L 277.5 -109.7 L 277.5 -109.7 Q 278.4 -108.3 278.4 -106.6 L 278.4 -106.6 L 278.4 -106.6 Q 278.4 -104.9 277.7 -103.5 L 277.7 -103.5 L 277.7 -103.5 Q 276.9 -102 275.8 -100.9 L 275.8 -100.9 L 275.8 -100.9 Q 273 -98.3 269.6 -98.3 L 269.6 -98.3 L 269.6 -98.3 Q 268.3 -98.3 267 -98.8 L 267 -98.8 L 267 -98.8 Q 267.3 -100.7 267.3 -102.9 L 267.3 -102.9 L 267.3 -102.9 Q 267.3 -105.2 267.1 -106.2 L 267.1 -106.2 L 267.1 -106.2 Q 267 -107.2 266.6 -108 L 266.6 -108 L 266.6 -108 Q 265.7 -109.8 263.9 -109.8 L 263.9 -109.8 L 263.9 -109.8 Q 262.1 -109.8 260.1 -107.8 L 260.1 -107.8 L 260.1 -107.8 Q 258.1 -105.9 256.5 -102.7 L 256.5 -102.7 L 256.5 -102.7 Q 252.9 -95.5 252.9 -86.9 L 252.9 -86.9 L 252.9 -86.9 Q 252.9 -82.9 254.5 -80.1 L 254.5 -80.1 L 254.5 -80.1 Q 256.1 -77 259.1 -77 L 259.1 -77 L 259.1 -77 Q 260.1 -77 261 -77.5 L 261 -77.5 L 261 -77.5 Q 262 -78 262.3 -78.4 L 262.3 -78.4 L 264.4 -91.3 Z M 283.2 -72.6 L 283.2 -72.6 L 283.2 -72.6 Q 281.7 -74.2 281.1 -76.9 L 281.1 -76.9 L 281.1 -76.9 Q 280.4 -79.5 280.4 -83.8 L 280.4 -83.8 L 280.4 -83.8 Q 280.4 -88.1 281.9 -92 L 281.9 -92 L 281.9 -92 Q 283.3 -95.9 286 -98.7 L 286 -98.7 L 286 -98.7 Q 291.5 -104.6 300.6 -104.6 L 300.6 -104.6 L 300.6 -104.6 Q 303.9 -104.6 306.3 -103.5 L 306.3 -103.5 L 317.2 -104.6 L 312.5 -79.6 L 312.5 -79.6 Q 312.3 -78.9 312.3 -77.4 L 312.3 -77.4 L 312.3 -77.4 Q 312.3 -76 313.1 -75.1 L 313.1 -75.1 L 313.1 -75.1 Q 314 -74.2 315.3 -74.1 L 315.3 -74.1 L 315.3 -74.1 Q 314.6 -71.9 312.3 -70.7 L 312.3 -70.7 L 312.3 -70.7 Q 310 -69.4 307.3 -69.4 L 307.3 -69.4 L 307.3 -69.4 Q 304.7 -69.4 303 -70.4 L 303 -70.4 L 303 -70.4 Q 301.2 -71.4 300.7 -73 L 300.7 -73 L 300.7 -73 Q 299.7 -71.4 297.5 -70.4 L 297.5 -70.4 L 297.5 -70.4 Q 295.3 -69.4 292.4 -69.4 L 292.4 -69.4 L 292.4 -69.4 Q 289.5 -69.4 287.1 -70.2 L 287.1 -70.2 L 287.1 -70.2 Q 284.7 -70.9 283.2 -72.6 Z M 296.7 -98.6 L 296.7 -98.6 L 296.7 -98.6 Q 296 -97.4 295.4 -95.5 L 295.4 -95.5 L 295.4 -95.5 Q 294.7 -93.5 293.7 -88.3 L 293.7 -88.3 L 293.7 -88.3 Q 292.6 -83.1 292.6 -79.4 L 292.6 -79.4 L 292.6 -79.4 Q 292.6 -75.7 293.2 -74.6 L 293.2 -74.6 L 293.2 -74.6 Q 293.8 -73.5 294.8 -73.5 L 294.8 -73.5 L 294.8 -73.5 Q 296.8 -73.5 298.3 -75.4 L 298.3 -75.4 L 298.3 -75.4 Q 299.9 -77.4 300.4 -80.8 L 300.4 -80.8 L 303.8 -99.6 L 303.8 -99.6 Q 302.5 -100.7 300.9 -100.7 L 300.9 -100.7 L 300.9 -100.7 Q 299.3 -100.7 298.4 -100.2 L 298.4 -100.2 L 298.4 -100.2 Q 297.5 -99.7 296.7 -98.6 Z M 335.9 -74.2 L 335.9 -74.2 L 335.9 -74.2 Q 334 -69.4 327.6 -69.4 L 327.6 -69.4 L 327.6 -69.4 Q 324.4 -69.4 322.4 -71.6 L 322.4 -71.6 L 322.4 -71.6 Q 320.7 -73.5 320.7 -75.6 L 320.7 -75.6 L 320.7 -75.6 Q 320.7 -80.4 323 -90.9 L 323 -90.9 L 327.6 -115.5 L 340.6 -116.7 L 334.4 -84.4 L 334.4 -84.4 Q 333.3 -79.6 333.3 -78 L 333.3 -78 L 333.3 -78 Q 333.3 -74.3 335.9 -74.2 Z M 356.7 -74.2 L 356.7 -74.2 L 356.7 -74.2 Q 354.7 -69.4 348.4 -69.4 L 348.4 -69.4 L 348.4 -69.4 Q 345.2 -69.4 343.1 -71.6 L 343.1 -71.6 L 343.1 -71.6 Q 341.5 -73.5 341.5 -75.6 L 341.5 -75.6 L 341.5 -75.6 Q 341.5 -80.4 343.7 -90.9 L 343.7 -90.9 L 348.4 -115.5 L 361.4 -116.7 L 355.1 -84.4 L 355.1 -84.4 Q 354.1 -79.6 354.1 -78 L 354.1 -78 L 354.1 -78 Q 354.1 -74.3 356.7 -74.2 Z M 388 -81.5 L 388 -81.5 L 388 -81.5 Q 389.6 -80.4 389.6 -78 L 389.6 -78 L 389.6 -78 Q 389.6 -75.6 388.4 -74.1 L 388.4 -74.1 L 388.4 -74.1 Q 387.2 -72.5 385.2 -71.5 L 385.2 -71.5 L 385.2 -71.5 Q 381.1 -69.4 376.7 -69.4 L 376.7 -69.4 L 376.7 -69.4 Q 372.3 -69.4 369.7 -70.3 L 369.7 -70.3 L 369.7 -70.3 Q 367.1 -71.3 365.4 -73.1 L 365.4 -73.1 L 365.4 -73.1 Q 362 -76.5 362 -82.7 L 362 -82.7 L 362 -82.7 Q 362 -92.4 367.2 -98.2 L 367.2 -98.2 L 367.2 -98.2 Q 372.9 -104.6 382.7 -104.6 L 382.7 -104.6 L 382.7 -104.6 Q 388.7 -104.6 391.8 -102 L 391.8 -102 L 391.8 -102 Q 394 -100.1 394 -97 L 394 -97 L 394 -97 Q 394 -85.7 374.5 -85.7 L 374.5 -85.7 L 374.5 -85.7 Q 374.3 -84 374.3 -82.6 L 374.3 -82.6 L 374.3 -82.6 Q 374.3 -79.7 375.6 -78.6 L 375.6 -78.6 L 375.6 -78.6 Q 376.9 -77.4 379.3 -77.4 L 379.3 -77.4 L 379.3 -77.4 Q 381.8 -77.4 384.4 -78.6 L 384.4 -78.6 L 384.4 -78.6 Q 387 -79.7 388 -81.5 Z M 375 -88.5 L 375 -88.5 L 375 -88.5 Q 379.5 -88.5 382.2 -91.3 L 382.2 -91.3 L 382.2 -91.3 Q 384.8 -94 384.8 -98.2 L 384.8 -98.2 L 384.8 -98.2 Q 384.8 -99.7 384.2 -100.5 L 384.2 -100.5 L 384.2 -100.5 Q 383.7 -101.3 382.6 -101.3 L 382.6 -101.3 L 382.6 -101.3 Q 381.5 -101.3 380.6 -100.9 L 380.6 -100.9 L 380.6 -100.9 Q 379.7 -100.5 378.7 -99.1 L 378.7 -99.1 L 378.7 -99.1 Q 376.3 -95.9 375 -88.5 Z M 416.2 -88.6 L 416.2 -88.6 L 416.2 -88.6 Q 418.5 -92.7 418.5 -96.9 L 418.5 -96.9 L 418.5 -96.9 Q 418.5 -99.7 416.5 -99.7 L 416.5 -99.7 L 416.5 -99.7 Q 415 -99.7 413.4 -97 L 413.4 -97 L 413.4 -97 Q 411.7 -94.4 411.2 -91 L 411.2 -91 L 407.9 -70.7 L 394.6 -69.4 L 401.2 -103.3 L 411.7 -104.6 L 410.6 -98.1 L 410.6 -98.1 Q 413.7 -104.6 420.7 -104.6 L 420.7 -104.6 L 420.7 -104.6 Q 424.5 -104.6 426.5 -102.7 L 426.5 -102.7 L 426.5 -102.7 Q 428.5 -100.7 428.5 -96.8 L 428.5 -96.8 L 428.5 -96.8 Q 428.5 -92.9 425.9 -90.4 L 425.9 -90.4 L 425.9 -90.4 Q 423.3 -87.9 418.9 -87.9 L 418.9 -87.9 L 418.9 -87.9 Q 417 -87.9 416.2 -88.6 Z M 449.9 -77.9 L 449.9 -77.9 L 449.9 -77.9 Q 446.5 -74.4 440.5 -74.4 L 440.5 -74.4 L 440.5 -74.4 Q 432.8 -74.4 431.2 -80 L 431.2 -80 L 431.2 -80 Q 430.7 -81.7 430.7 -83.5 L 430.7 -83.5 L 430.7 -83.5 Q 430.7 -85.4 431.1 -87.3 L 431.1 -87.3 L 434.1 -103.3 L 447.1 -104.6 L 443.6 -86 L 443.6 -86 Q 443.5 -85.1 443.3 -84.2 L 443.3 -84.2 L 443.3 -84.2 Q 443.1 -83.3 443.1 -82.4 L 443.1 -82.4 L 443.1 -82.4 Q 443.1 -81.5 443.4 -80.9 L 443.4 -80.9 L 443.4 -80.9 Q 443.7 -80.3 444.2 -79.9 L 444.2 -79.9 L 444.2 -79.9 Q 444.9 -79.4 446.3 -79.4 L 446.3 -79.4 L 446.3 -79.4 Q 447.7 -79.4 448.9 -81 L 448.9 -81 L 448.9 -81 Q 450.1 -82.7 450.6 -85.6 L 450.6 -85.6 L 454.2 -103.3 L 466.8 -104.6 L 462 -79.4 L 462 -79.4 Q 459.6 -67.1 454.7 -62.3 L 454.7 -62.3 L 454.7 -62.3 Q 452.2 -59.8 449 -58.8 L 449 -58.8 L 449 -58.8 Q 445.8 -57.8 441.6 -57.8 L 441.6 -57.8 L 441.6 -57.8 Q 434.9 -57.8 431.1 -59.9 L 431.1 -59.9 L 431.1 -59.9 Q 427.2 -62 427.2 -65.5 L 427.2 -65.5 L 427.2 -65.5 Q 427.2 -68.2 429.2 -69.7 L 429.2 -69.7 L 429.2 -69.7 Q 431.2 -71.2 434.3 -71.2 L 434.3 -71.2 L 434.3 -71.2 Q 436.9 -71.2 439 -70 L 439 -70 L 439 -70 Q 440.2 -69.3 440.8 -68.4 L 440.8 -68.4 L 440.8 -68.4 Q 439.3 -67.1 439.3 -65 L 439.3 -65 L 439.3 -65 Q 439.3 -62.2 441.9 -62.2 L 441.9 -62.2 L 441.9 -62.2 Q 446.1 -62.2 448.5 -71.9 L 448.5 -71.9 L 448.5 -71.9 Q 449.2 -74.8 449.9 -77.9 Z"></path></g></g><style>text {
  font-size: 64px;
  font-family: Arial Black;
  dominant-baseline: central;
  text-anchor: middle;
}</style></svg>